<?xml version="1.0" standalone="no"?>
<!DOCTYPE svg PUBLIC "-//W3C//DTD SVG 20010904//EN"
 "http://www.w3.org/TR/2001/REC-SVG-20010904/DTD/svg10.dtd">
<svg version="1.0" xmlns="http://www.w3.org/2000/svg"
 width="444.000000pt" height="448.000000pt" viewBox="0 0 444.000000 448.000000"
 preserveAspectRatio="xMidYMid meet">

<g transform="translate(0.000000,448.000000) scale(0.100000,-0.100000)"
fill="#000000" stroke="none">
<path d="M1860 4423 c-79 -13 -193 -49 -254 -80 -268 -134 -438 -372 -483
-672 -24 -165 -1 -272 101 -467 107 -206 308 -464 570 -732 147 -150 179 -173
216 -156 66 32 370 357 532 570 154 202 263 399 299 544 18 70 21 102 16 180
-30 469 -410 825 -875 819 -54 -1 -108 -4 -122 -6z m265 -523 c81 -31 173
-124 206 -206 61 -159 3 -346 -136 -438 -192 -127 -437 -62 -538 143 -29 60
-32 74 -32 161 0 84 3 102 28 152 50 101 147 181 254 208 56 14 150 5 218 -20z"/>
<path d="M617 3531 c-86 -22 -115 -44 -149 -112 -39 -77 -38 -134 7 -228 l35
-73 -21 -81 c-31 -123 -36 -129 -136 -172 -131 -57 -148 -73 -203 -186 -56
-114 -69 -181 -50 -259 15 -62 50 -107 105 -131 52 -24 92 -24 156 1 55 22 68
17 69 -22 0 -9 15 -28 32 -43 32 -27 35 -27 123 -21 94 7 161 23 234 57 24 11
49 18 56 15 7 -2 17 -24 23 -48 6 -24 22 -53 34 -65 34 -31 169 -95 291 -138
130 -46 143 -60 140 -150 -5 -113 31 -164 116 -166 43 0 49 -4 101 -61 l54
-60 -23 -62 c-27 -70 -47 -209 -37 -261 11 -56 44 -86 111 -100 58 -11 58 -11
70 -57 16 -63 37 -93 77 -107 66 -25 81 -36 95 -76 15 -41 11 -132 -6 -179 -5
-12 -57 -64 -116 -116 -112 -100 -135 -130 -135 -179 0 -34 34 -117 58 -145 9
-10 49 -36 88 -57 39 -21 81 -50 94 -64 55 -58 158 -48 200 19 11 18 53 57 95
86 90 64 228 211 243 260 6 19 16 76 22 125 7 50 17 95 22 102 5 6 40 30 79
53 69 41 69 41 69 85 0 29 -4 45 -12 45 -22 0 -198 -110 -213 -133 -8 -12 -23
-75 -33 -140 -13 -79 -26 -125 -38 -140 -68 -79 -139 -147 -207 -195 -42 -31
-86 -71 -97 -89 -24 -40 -35 -41 -75 -4 -16 16 -62 45 -100 65 -72 36 -105 76
-105 126 0 11 44 58 114 120 119 106 130 121 146 209 15 79 12 114 -11 177
-27 70 -54 99 -108 114 -44 12 -52 23 -67 95 -11 49 -59 85 -114 85 -21 0 -43
6 -49 14 -18 22 -3 160 25 230 42 104 33 134 -70 236 -61 59 -70 65 -119 70
l-52 5 -5 85 c-8 138 -26 157 -213 224 -151 55 -247 106 -253 136 -12 56 -35
91 -69 106 -49 20 -72 18 -140 -14 -60 -29 -233 -61 -255 -47 -5 3 -10 15 -10
26 0 11 -13 34 -29 50 -35 35 -76 38 -140 9 -59 -27 -85 -25 -123 9 -31 28
-33 33 -33 98 1 60 6 78 43 150 23 45 51 88 63 97 12 8 57 29 100 47 110 46
144 83 176 195 34 119 32 163 -7 248 -38 80 -38 141 0 180 25 27 117 56 178
56 38 0 45 -4 79 -50 44 -59 88 -79 134 -60 57 24 47 90 -15 90 -24 0 -36 8
-53 35 -47 72 -132 90 -266 56z"/>
<path d="M2882 3113 c-22 -9 -34 -41 -22 -63 22 -41 97 -71 270 -110 93 -20
181 -45 195 -54 14 -9 72 -54 130 -100 80 -64 127 -94 196 -122 52 -21 97 -47
105 -59 8 -12 17 -59 21 -103 9 -121 -12 -157 -204 -351 -97 -99 -160 -171
-174 -200 -26 -56 -54 -168 -62 -248 l-7 -63 44 0 44 0 7 68 c4 37 18 103 32
147 25 79 26 81 159 213 226 226 263 291 250 446 -7 88 -33 155 -69 179 -12 8
-61 31 -108 51 -62 27 -117 62 -203 130 -129 103 -152 114 -306 146 -106 22
-174 45 -242 81 -20 10 -38 19 -40 18 -2 0 -9 -3 -16 -6z"/>
<path d="M2090 1960 l0 -90 50 0 c72 0 115 47 75 80 -11 9 -13 16 -5 24 14 14
13 49 -2 64 -7 7 -36 12 -65 12 l-53 0 0 -90z m94 45 c3 -8 -3 -19 -14 -25
-30 -16 -40 -12 -40 15 0 20 5 25 24 25 13 0 26 -7 30 -15z m1 -80 c0 -14 -8
-21 -27 -23 -24 -3 -28 0 -28 23 0 23 4 26 28 23 19 -2 27 -9 27 -23z"/>
<path d="M2270 1960 c0 -83 1 -90 20 -90 16 0 20 7 20 35 0 22 5 35 13 35 7 0
21 -16 31 -35 14 -25 26 -35 43 -35 l23 0 -24 39 c-22 34 -23 41 -11 51 22 18
19 67 -4 80 -11 5 -40 10 -65 10 l-46 0 0 -90z m90 35 c0 -20 -5 -25 -25 -25
-20 0 -25 5 -25 25 0 20 5 25 25 25 20 0 25 -5 25 -25z"/>
<path d="M2497 2043 c-3 -5 -17 -38 -30 -73 -14 -36 -28 -73 -32 -82 -5 -14
-2 -18 13 -18 12 0 23 9 27 20 5 15 15 20 45 20 30 0 40 -5 45 -20 3 -11 15
-20 26 -20 10 0 19 1 19 3 0 1 -15 40 -33 87 -26 65 -38 86 -54 88 -12 2 -23
-1 -26 -5z m40 -68 c11 -34 11 -35 -17 -35 -28 0 -28 1 -17 35 6 19 13 35 17
35 4 0 11 -16 17 -35z"/>
<path d="M2652 2038 c-7 -7 -12 -25 -12 -40 0 -22 7 -31 38 -45 48 -23 49 -48
2 -49 -53 -1 -57 -3 -36 -19 46 -34 106 -6 106 49 0 23 -7 30 -40 43 -51 20
-55 47 -5 41 32 -4 53 11 38 26 -11 11 -79 6 -91 -6z"/>
<path d="M2792 1960 c-1 -83 0 -90 18 -90 18 0 20 7 20 90 0 81 -2 90 -19 90
-16 0 -18 -9 -19 -90z"/>
<path d="M2881 1960 l-2 -90 55 0 c42 0 56 4 56 14 0 9 -12 16 -32 18 l-33 3
-3 73 c-2 62 -5 72 -21 72 -16 0 -19 -10 -20 -90z"/>
<path d="M2998 1581 c-33 -29 -33 -30 -36 -135 l-4 -106 -94 0 c-112 0 -147
-14 -163 -63 -14 -42 -3 -76 35 -106 23 -18 40 -21 124 -21 l98 0 4 -104 c3
-94 5 -107 27 -130 31 -33 72 -41 110 -22 44 23 51 44 51 155 l0 101 95 0
c110 0 146 13 165 59 14 35 8 69 -19 102 -18 22 -27 24 -130 27 l-111 4 0 100
c0 110 -7 131 -50 153 -42 22 -66 19 -102 -14z m90 -27 c20 -14 22 -23 22
-123 0 -70 4 -111 12 -119 8 -8 49 -12 117 -12 83 0 108 -3 123 -17 22 -20 23
-42 2 -71 -14 -20 -23 -22 -123 -22 -70 0 -111 -4 -119 -12 -8 -8 -12 -49 -12
-119 0 -116 -7 -131 -57 -131 -43 0 -53 25 -53 137 0 65 -4 105 -12 113 -8 8
-47 12 -111 12 -117 0 -137 8 -137 55 0 47 20 55 137 55 64 0 103 4 111 12 8
8 12 48 12 115 0 90 3 106 20 123 24 24 38 25 68 4z"/>
<path d="M3047 540 c-21 -30 -10 -59 29 -75 45 -19 46 -48 2 -43 -41 4 -51
-14 -15 -26 18 -7 35 -6 52 2 22 10 26 18 23 45 -2 25 -10 35 -35 46 -18 8
-33 21 -33 29 0 9 10 13 33 10 23 -2 32 1 32 12 0 10 -12 16 -37 18 -28 2 -40
-2 -51 -18z"/>
<path d="M3180 475 l0 -85 55 0 c42 0 55 3 55 15 0 10 -11 15 -35 15 -28 0
-35 4 -35 20 0 15 7 20 25 20 16 0 25 6 25 15 0 9 -9 15 -25 15 -18 0 -25 5
-25 20 0 16 7 20 35 20 24 0 35 5 35 15 0 12 -13 15 -55 15 l-55 0 0 -85z"/>
<path d="M3345 535 c-65 -64 6 -170 94 -139 21 8 27 17 29 47 3 35 2 37 -27
37 -21 0 -31 -5 -31 -15 0 -8 7 -15 15 -15 8 0 15 -7 15 -15 0 -18 -50 -21
-68 -3 -17 17 -15 73 3 88 9 8 29 10 49 7 39 -6 51 0 35 20 -20 23 -87 16
-114 -12z"/>
<path d="M3510 495 c0 -75 20 -105 70 -105 50 0 70 30 70 105 0 51 -3 65 -15
65 -11 0 -15 -12 -15 -51 0 -60 -13 -89 -41 -89 -24 0 -39 36 -39 96 0 32 -4
44 -15 44 -12 0 -15 -14 -15 -65z"/>
<path d="M3700 475 c0 -69 3 -85 15 -85 10 0 15 10 15 29 0 44 17 47 41 7 12
-21 29 -36 40 -36 24 0 24 5 -2 41 -19 28 -20 31 -5 48 37 41 7 81 -60 81
l-44 0 0 -85z m78 33 c-2 -15 -11 -24 -25 -26 -19 -3 -23 1 -23 22 0 21 5 26
26 26 21 0 25 -4 22 -22z"/>
<path d="M3886 539 c-36 -29 -37 -89 0 -126 22 -22 32 -25 67 -20 50 7 77 36
77 84 0 72 -85 109 -144 62z m92 -21 c17 -17 15 -73 -2 -88 -23 -18 -59 -8
-75 21 -13 24 -13 29 2 53 19 28 54 35 75 14z"/>
</g>
</svg>
